# xmcd
#
# Track frame offsets:
#	150
#	19978
#	35849
#	51673
#	59743
#	79310
#	92763
#	107831
#	120270
#	135664
#	152499
#	173156
#	185018
#	195784
#	219009
#	233097
#	243214
#	256527
#	275313
#	288145
#
# Disc length: 4086 seconds
#
# Revision: 0
# Processed by: cddbd v1.5.2PL0 Copyright (c) Steve Scherf et al.
# Submitted via: dBpowerAMP V4.0
#
DISCID=0e0ff414
DTITLE=Travis Linville - See You Around
DYEAR=2007
DGENRE=Country
TTITLE0=New Light
TTITLE1=See You Around
TTITLE2=Hard Knocks
TTITLE3=Doc's Guitar
TTITLE4=Scarlet Water
TTITLE5=Ain't Being Treated Right
TTITLE6=Lightning
TTITLE7=Sail Away
TTITLE8=Feelling Better Now
TTITLE9=The Claw
TTITLE10=Give Me Wings
TTITLE11=Waterwheel
TTITLE12=Calvin's Song
TTITLE13=Golden Days
TTITLE14=Guns
TTITLE15=Travis' Guitar
TTITLE16=End of the Ride
TTITLE17=Here She Stands
TTITLE18=Cannonball Rag
TTITLE19=Wandering Back to You
EXTD=
EXTT0=
EXTT1=
EXTT2=
EXTT3=
EXTT4=
EXTT5=
EXTT6=
EXTT7=
EXTT8=
EXTT9=
EXTT10=
EXTT11=
EXTT12=
EXTT13=
EXTT14=
EXTT15=
EXTT16=
EXTT17=
EXTT18=
EXTT19=
PLAYORDER=
